<svg width="22" height="34" viewBox="0 0 22 34" fill="none" xmlns="http://www.w3.org/2000/svg">
<path d="M9.20809 19.6796C9.20809 19.6796 21 19.8385 21 9.74893C21 -0.340686 9.20809 1.067 9.20809 1.067V19.6796Z" fill="black"/>
<path d="M1 1.06699V32.8407L9.20809 19.6796L1 1.06699Z" fill="#BEEE02"/>
<path d="M1 1.06699V32.8407M1 1.06699L9.20809 1.067M1 1.06699L9.20809 19.6796M1 32.8407C5.50291 33.2043 5.68113 33.1638 9.20809 30.3051V19.6796M1 32.8407L9.20809 19.6796M9.20809 19.6796C9.20809 19.6796 21 19.8385 21 9.74893C21 -0.340686 9.20809 1.067 9.20809 1.067M9.20809 19.6796V1.067" stroke="black" stroke-width="2"/>
</svg>
