<svg width="75" height="17" viewBox="0 0 75 17" fill="none" xmlns="http://www.w3.org/2000/svg">
<path d="M69.8135 16.06V0H72.8275L72.96 13.0596L74.46 16.06H69.8135Z" fill="#BEEE02"/>
<path d="M61.206 16.3232C60.1794 16.3232 59.2847 16.0592 58.522 15.5312C57.7594 15.0032 57.1654 14.2992 56.74 13.4192C56.3294 12.5245 56.124 11.5419 56.124 10.4712C56.124 9.37119 56.3587 8.37386 56.828 7.4792C57.312 6.58453 58.0014 5.88053 58.896 5.3672C59.7907 4.8392 60.8614 4.5752 62.108 4.5752C63.3694 4.5752 64.4327 4.8392 65.298 5.3672C66.1634 5.8952 66.8234 6.60653 67.278 7.50119C67.7327 8.39586 67.96 9.38586 67.96 10.4712V16.0592L66.5 16H65L64.902 14.1892C64.682 14.5852 64.4034 14.9445 64.066 15.2672C63.7434 15.5899 63.3474 15.8465 62.878 16.0372C62.4087 16.2279 61.8514 16.3232 61.206 16.3232ZM62.064 13.7492C62.6507 13.7492 63.1567 13.6025 63.582 13.3092C64.0074 13.0159 64.33 12.6199 64.55 12.1212C64.7847 11.6079 64.902 11.0432 64.902 10.4272C64.902 9.8112 64.7847 9.2612 64.55 8.77719C64.33 8.27853 64.0074 7.88253 63.582 7.5892C63.1567 7.29586 62.6507 7.14919 62.064 7.14919C61.4627 7.14919 60.942 7.29586 60.502 7.5892C60.0767 7.88253 59.7467 8.27853 59.512 8.77719C59.292 9.2612 59.182 9.8112 59.182 10.4272C59.182 11.0432 59.292 11.6079 59.512 12.1212C59.7467 12.6199 60.0767 13.0159 60.502 13.3092C60.942 13.6025 61.4627 13.7492 62.064 13.7492Z" fill="#BEEE02"/>
<path d="M54.2795 16.0598C53.1208 16.0598 52.0868 15.8105 51.1775 15.3118C50.2682 14.8132 49.5495 14.1458 49.0215 13.3098C48.4935 12.4592 48.2295 11.5058 48.2295 10.4498C48.2295 9.39384 48.4935 8.44784 49.0215 7.61185C49.5495 6.76118 50.2682 6.08651 51.1775 5.58784C52.0868 5.08918 53.1208 4.83984 54.2795 4.83984H55.6875V7.41385H54.2795C53.6635 7.41385 53.1282 7.54584 52.6735 7.80984C52.2335 8.07384 51.8888 8.44051 51.6395 8.90984C51.4048 9.36451 51.2875 9.87784 51.2875 10.4498C51.2875 11.0218 51.4048 11.5425 51.6395 12.0118C51.8888 12.4665 52.2335 12.8258 52.6735 13.0898C53.1282 13.3538 53.6635 13.4858 54.2795 13.4858H55.6875V16.0598H54.2795Z" fill="#BEEE02"/>
<path d="M41.3445 16.0596C40.2912 16.0596 42.2536 16.0596 41.3445 16.0596C40.5179 15.5987 37.66 12.5664 37.18 11.7983C36.7 11.0174 36.46 10.1468 36.46 9.1867C36.46 8.22656 36.7 7.36244 37.18 6.59433C37.66 5.81342 38.3133 5.19893 39.14 4.75087C39.9666 4.29 40.9066 4.05957 41.96 4.05957C43.0133 4.05957 43.9533 4.29 44.78 4.75087C45.6066 5.19893 46.26 5.81342 46.74 6.59433C47.22 7.36244 47.46 8.22656 47.46 9.1867C47.46 10.1468 47.22 11.0174 46.74 11.7983C46.26 12.5664 42.1712 15.5987 41.3445 16.0596ZM41.96 12.0671C42.52 12.0671 43 11.9391 43.4 11.6831C43.8133 11.427 44.1266 11.0814 44.34 10.6461C44.5666 10.2108 44.68 9.72437 44.68 9.1867C44.68 8.64902 44.5666 8.16255 44.34 7.72729C44.1266 7.29203 43.8133 6.94638 43.4 6.69034C43 6.43431 42.52 6.30629 41.96 6.30629C41.4 6.30629 40.9133 6.43431 40.5 6.69034C40.1 6.94638 39.7866 7.29203 39.56 7.72729C39.3466 8.16255 39.24 8.64902 39.24 9.1867C39.24 9.72437 39.3466 10.2108 39.56 10.6461C39.7866 11.0814 40.1 11.427 40.5 11.6831C40.9133 11.9391 41.4 12.0671 41.96 12.0671Z" fill="#BEEE02"/>
<path d="M32.3818 16.06V0H35.3958V12.0596L37.46 16.0596L32.3818 16.06Z" fill="#BEEE02"/>
<path d="M25.1291 16.3232C23.9704 16.3232 22.9364 16.0665 22.0271 15.5532C21.1178 15.0252 20.3991 14.3212 19.8711 13.4412C19.3431 12.5465 19.0791 11.5492 19.0791 10.4492C19.0791 9.3492 19.3431 8.3592 19.8711 7.4792C20.3991 6.58453 21.1178 5.88053 22.0271 5.3672C22.9364 4.8392 23.9704 4.5752 25.1291 4.5752C26.2878 4.5752 27.3218 4.8392 28.2311 5.3672C29.1404 5.88053 29.8591 6.58453 30.3871 7.4792C30.9151 8.3592 31.1791 9.3492 31.1791 10.4492C31.1791 11.5492 30.9151 12.5465 30.3871 13.4412C29.8591 14.3212 29.1404 15.0252 28.2311 15.5532C27.3218 16.0665 26.2878 16.3232 25.1291 16.3232ZM25.1291 13.7492C25.7451 13.7492 26.2731 13.6025 26.7131 13.3092C27.1678 13.0159 27.5124 12.6199 27.7471 12.1212C27.9964 11.6225 28.1211 11.0652 28.1211 10.4492C28.1211 9.83319 27.9964 9.27586 27.7471 8.77719C27.5124 8.27853 27.1678 7.88253 26.7131 7.5892C26.2731 7.29586 25.7451 7.14919 25.1291 7.14919C24.5131 7.14919 23.9778 7.29586 23.5231 7.5892C23.0831 7.88253 22.7384 8.27853 22.4891 8.77719C22.2544 9.27586 22.1371 9.83319 22.1371 10.4492C22.1371 11.0652 22.2544 11.6225 22.4891 12.1212C22.7384 12.6199 23.0831 13.0159 23.5231 13.3092C23.9778 13.6025 24.5131 13.7492 25.1291 13.7492Z" fill="white"/>
<path d="M12.7881 16.0598V8.02984C12.7881 7.03251 13.0668 6.25518 13.6241 5.69784C14.1961 5.12584 14.9808 4.83984 15.9781 4.83984H17.5291L19.0801 7.41385H16.5061C16.3154 7.41385 16.1468 7.47985 16.0001 7.61185C15.8681 7.74384 15.8021 7.91251 15.8021 8.11784V16.0598H12.7881Z" fill="white"/>
<path fill-rule="evenodd" clip-rule="evenodd" d="M0 0.65918V16.0592H3.146V11.6152H6.446C7.458 11.6152 8.37467 11.3878 9.196 10.9332C10.032 10.4638 10.692 9.81851 11.176 8.99718C11.6747 8.16118 11.924 7.20785 11.924 6.13718C11.924 5.05185 11.6747 4.09851 11.176 3.27718C10.692 2.45585 10.032 1.81785 9.196 1.36318C8.37467 0.893846 7.458 0.65918 6.446 0.65918H0ZM3.146 8.84318V11.6152L6.072 8.84318C6.57067 8.84318 7.02533 8.74051 7.436 8.53518C7.84667 8.31518 8.16933 8.00718 8.404 7.61118C8.65333 7.20051 8.778 6.70918 8.778 6.13718C8.778 5.56518 8.65333 5.08118 8.404 4.68518C8.16933 4.27451 7.84667 3.96651 7.436 3.76118C7.02533 3.54118 6.57067 3.43118 6.072 3.43118H3.146V8.84318Z" fill="white"/>
</svg>
