<svg width="184" height="210" viewBox="0 0 184 210" fill="none" xmlns="http://www.w3.org/2000/svg">
<g filter="url(#filter0_d_12_5)">
<path d="M92.8897 99.4377C92.8897 99.4377 149.063 100.206 149.063 51.4328C149.063 2.65977 92.8897 9.46449 92.8897 9.46449V99.4377Z" fill="black"/>
<path d="M53.7891 9.46444V163.058L92.8897 99.4377L53.7891 9.46444Z" fill="black"/>
<path d="M53.7891 9.46444V163.058M53.7891 9.46444L92.8897 9.46449M53.7891 9.46444L92.8897 99.4377M53.7891 163.058C75.2394 164.816 76.0884 164.62 92.8897 150.801V99.4377M53.7891 163.058L92.8897 99.4377M92.8897 99.4377C92.8897 99.4377 149.063 100.206 149.063 51.4328C149.063 2.65977 92.8897 9.46449 92.8897 9.46449M92.8897 99.4377V9.46449" stroke="black" stroke-width="9"/>
</g>
<defs>
<filter id="filter0_d_12_5" x="49.2891" y="4.64062" width="134.073" height="204.488" filterUnits="userSpaceOnUse" color-interpolation-filters="sRGB">
<feFlood flood-opacity="0" result="BackgroundImageFix"/>
<feColorMatrix in="SourceAlpha" type="matrix" values="0 0 0 0 0 0 0 0 0 0 0 0 0 0 0 0 0 0 127 0" result="hardAlpha"/>
<feOffset dx="22" dy="33"/>
<feGaussianBlur stdDeviation="3.9"/>
<feComposite in2="hardAlpha" operator="out"/>
<feColorMatrix type="matrix" values="0 0 0 0 0 0 0 0 0 0 0 0 0 0 0 0 0 0 0.4 0"/>
<feBlend mode="normal" in2="BackgroundImageFix" result="effect1_dropShadow_12_5"/>
<feBlend mode="normal" in="SourceGraphic" in2="effect1_dropShadow_12_5" result="shape"/>
</filter>
</defs>
</svg>
